<?xml version="1.0" encoding="UTF-8"?><svg xmlns="http://www.w3.org/2000/svg" xmlns:xlink="http://www.w3.org/1999/xlink" viewBox="0 0 499.69 138.8"><defs><style>.k{fill:url(#e);}.l{fill:url(#d);}.m{fill:url(#g);}.n{fill:url(#f);}.o{fill:url(#i);}.p{fill:url(#h);}.q{fill:url(#j);}.r{fill:#fff;}.s{fill:#104b81;}</style><linearGradient id="d" x1="235.14" y1="684.9" x2="235.14" y2="590.3" gradientTransform="translate(315.04 -568) rotate(-180) scale(1 -1)" gradientUnits="userSpaceOnUse"><stop offset="0" stop-color="#fff" stop-opacity="0"/><stop offset=".18" stop-color="#abcae4" stop-opacity=".25"/><stop offset=".37" stop-color="#5997c9" stop-opacity=".5"/><stop offset=".53" stop-color="#2777b9" stop-opacity=".65"/><stop offset=".62" stop-color="#146bb3" stop-opacity=".71"/><stop offset=".62" stop-color="#146bb3" stop-opacity=".73"/><stop offset=".68" stop-color="#106bb4" stop-opacity=".88"/><stop offset=".73" stop-color="#0e6bb4" stop-opacity=".97"/><stop offset=".77" stop-color="#0d6bb4"/></linearGradient><linearGradient id="e" x1="240.34" x2="240.34" xlink:href="#d"/><linearGradient id="f" x1="271.19" y1="662.6" x2="271.19" y2="568" xlink:href="#d"/><linearGradient id="g" x1="276.44" y1="662.6" x2="276.44" y2="568" xlink:href="#d"/><linearGradient id="h" x1="307.24" y1="706.8" x2="307.24" y2="612.2" xlink:href="#d"/><linearGradient id="i" x1="312.54" y1="706.8" x2="312.54" y2="612.2" xlink:href="#d"/><linearGradient id="j" x1="-28.37" y1="356.93" x2="-78.4" y2="520.56" gradientTransform="translate(245.77 -357) rotate(-180) scale(1 -1)" gradientUnits="userSpaceOnUse"><stop offset="0" stop-color="#104b81"/><stop offset=".09" stop-color="#1c5487"/><stop offset=".26" stop-color="#3d6d98"/><stop offset=".49" stop-color="#7194b4"/><stop offset=".76" stop-color="#b9cada"/><stop offset="1" stop-color="#fff"/></linearGradient></defs><g id="a"/><g id="b"><g id="c"><g><g><polygon class="l" points="82.4 44.4 77.4 116.9 77.5 22.3 82.4 44.4"/><polygon class="k" points="77.1 22.3 77.2 116.9 72.2 44.4 77.1 22.3"/><polygon class="s" points="72.2 44.4 77.1 44.4 77.1 22.3 72.2 44.4"/><polygon class="s" points="77.5 22.3 77.5 44.4 82.4 44.4 77.5 22.3"/><polygon class="n" points="46.3 22 41.4 94.6 41.4 0 46.3 22"/><polygon class="m" points="41.1 0 41.1 94.6 36.1 22 41.1 0"/><polygon class="s" points="36.1 22 41.1 22 41.1 0 36.1 22"/><polygon class="s" points="41.4 0 41.4 22 46.3 22 41.4 0"/><polygon class="p" points="10.3 66.2 5.3 138.8 5.3 44.2 10.3 66.2"/><polygon class="o" points="5 44.2 5 138.8 0 66.2 5 44.2"/><polygon class="s" points="0 66.2 5 66.2 5 44.2 0 66.2"/><polygon class="s" points="5.3 44.2 5.3 66.2 10.3 66.2 5.3 44.2"/></g><polygon class="q" points="104.59 93.1 486.99 93.1 486.99 48.4 104.59 48.4 104.59 93.1"/><g><polygon class="r" points="306.79 73.8 318.09 73.8 312.39 55.9 306.79 73.8"/><path class="r" d="M96.99,26.6V112.2H499.69V26.6H96.99Zm71.8,61.6h-6v-24.7l-11.8,24.7h-2.6l-11.8-24.7v24.7h-6V49.7h5.8l13.3,27.2,13.3-27.2h5.8v38.5Zm32.4-32.4h-18.4v9.5h15.1v6h-15.2v10.9h18.4v6h-24.8V49.7h24.8v6.1h.1Zm35.8,22.2c-1.1,2.7-2.7,5-4.8,6.8s-4.7,2.9-7.7,3.2c-.9,.1-1.8,.2-2.8,.2h-14.2V49.7h14.2c1,0,1.9,.1,2.8,.2,3,.4,5.6,1.5,7.7,3.2,2.1,1.8,3.7,4,4.8,6.8,1.1,2.7,1.6,5.7,1.6,9,.1,3.3-.5,6.3-1.6,9.1Zm15,10.2h-6.4V49.7h6.4v38.5Zm38.9,0h-6.5l-17.8-27.1v27.1h-6.5V49.7h6.5l17.8,27.1v-27.1h6.5v38.5Zm31.8,0l-2.7-8.3h-15.1l-2.6,8.3h-6.6l12.1-38.5h9.4l12.1,38.5h-6.6Zm41.4-14.3c0,3-.7,5.7-2,8s-3.1,4-5.4,5.3c-2.3,1.2-5,1.9-8.1,1.9s-5.8-.6-8.1-1.9c-2.3-1.2-4.1-3-5.4-5.3-1.3-2.3-2-4.9-2-8v-24.1l6.5-.1v24c0,1.4,.2,2.7,.7,3.9s1.2,2.1,2,2.9c.8,.8,1.8,1.4,2.9,1.8,1.1,.4,2.2,.6,3.4,.6s2.3-.2,3.4-.6c1.1-.4,2-1,2.9-1.8,.8-.8,1.5-1.8,2-2.9,.5-1.1,.7-2.4,.7-3.8v-24h6.5v24.1Zm35.6-18.1h-12.4v32.4h-6.4V55.8h-12.4v-6h31.3v6h-.1Zm29.1,0h-18.4v9.5h15.2v6h-15.2v10.9h18.4v6h-24.8V49.7h24.8v6.1Zm37.3,32.4h-6.5l-17.8-27.1v27.1h-6.5V49.7h6.5l17.8,27.1v-27.1h6.5v38.5Z"/><path class="r" d="M228.49,58.5c-1.1-1.2-2.6-2-4.4-2.4-.6-.1-1.4-.2-2.2-.3h-7.7v26.3h5.7c.5,0,1.2,0,2-.1,.8,0,1.6-.1,2.2-.2,1.8-.3,3.3-1.1,4.4-2.4,1.1-1.3,2-2.8,2.5-4.7,.5-1.8,.8-3.8,.8-5.8,0-2.1-.3-4-.8-5.9-.5-1.8-1.4-3.3-2.5-4.5Z"/></g></g></g></g></svg>